<svg width="484" height="104" viewBox="0 0 484 104" fill="none" xmlns="http://www.w3.org/2000/svg">
<path d="M49.6601 42.3564C64.6386 46.8203 81.4863 52.0049 81.4863 73.1748C81.4863 91.6084 66.6543 103.562 43.7558 103.562C28.3476 103.562 12.3613 97.6572 0.695312 87.8643L9.33789 69.7197C19.1289 78.3603 33.5313 84.5518 44.0449 84.5518C52.541 84.5518 57.582 80.8076 57.582 74.4717C57.582 66.1182 48.3652 63.3818 37.707 60.2139C23.0176 55.8935 6.31248 50.9971 6.31248 30.4033C6.31248 12.2578 21.002 0.448242 43.9004 0.448242C57.0059 0.448242 70.6855 4.48046 80.7676 11.249L72.2695 29.8271C62.0449 23.7783 49.6602 19.6016 41.7402 19.6016C34.3945 19.6016 30.0742 22.7705 30.0742 28.0986C30.0742 36.1631 39.1484 38.8994 49.5156 42.0684L49.6601 42.3564Z" fill="#4A69BD"/>
<path d="M176.781 34.5786C176.781 58.0532 162.957 69.4302 138.761 69.4302H120.185V102.409H97.5737V1.6001H138.761C162.957 1.6001 176.781 12.4009 176.781 34.5786ZM155.611 35.4429C155.611 24.354 149.13 20.1773 137.466 20.1773H120.041V50.9966H137.466C148.988 50.9966 155.611 46.6763 155.611 35.4429Z" fill="#4A69BD"/>
<path d="M236.99 1.6001H213.084L172.184 102.409H195.227L208.763 65.686L224.316 25.4898L252.975 102.409H277.025L236.99 1.6001Z" fill="#4A69BD"/>
<path d="M334.022 83.688C343.815 83.688 353.175 78.7915 359.079 71.0142L379.817 80.231C370.313 94.3442 353.608 103.417 333.733 103.417C302.628 103.417 279.153 81.2388 279.153 51.7173C279.153 22.6255 302.628 0.592285 333.733 0.592285C353.751 0.592285 370.601 9.66454 380.106 23.7778L359.224 33.1391C353.319 25.3618 343.958 20.4653 334.022 20.4653C317.173 20.4653 301.763 34.2905 301.763 52.0044C301.763 69.5747 317.317 83.8325 333.878 83.8325L334.022 83.688Z" fill="#4A69BD"/>
<path d="M480.433 1.6001L416.06 77.7837V102.409H393.448V1.6001H416.06V47.9722L454.655 1.6001H480.433Z" fill="#4A69BD"/>
<path d="M483.313 102.553H456.239L437.806 73.6058C440.685 56.181 454.942 58.1966 454.942 58.1966L483.313 102.553Z" fill="#6A89CC"/>
</svg>
